<svg preserveAspectRatio="none" width="100%" height="100%" overflow="visible" style="display: block;" viewBox="0 0 56.75 42.75" fill="none" xmlns="http://www.w3.org/2000/svg">
<g id="Plus">
<rect x="2" y="2" width="52.75" height="38.75" rx="19.375" fill="var(--fill-0, #D9D9D9)"/>
<rect x="2" y="2" width="52.75" height="38.75" rx="19.375" stroke="var(--stroke-0, #E9E9E9)" stroke-width="4"/>
<path id="Vector" d="M37.75 21.375C37.75 21.6734 37.6315 21.9595 37.4205 22.1705C37.2095 22.3815 36.9234 22.5 36.625 22.5H29.5V29.625C29.5 29.9234 29.3815 30.2095 29.1705 30.4205C28.9595 30.6315 28.6734 30.75 28.375 30.75C28.0766 30.75 27.7905 30.6315 27.5795 30.4205C27.3685 30.2095 27.25 29.9234 27.25 29.625V22.5H20.125C19.8266 22.5 19.5405 22.3815 19.3295 22.1705C19.1185 21.9595 19 21.6734 19 21.375C19 21.0766 19.1185 20.7905 19.3295 20.5795C19.5405 20.3685 19.8266 20.25 20.125 20.25H27.25V13.125C27.25 12.8266 27.3685 12.5405 27.5795 12.3295C27.7905 12.1185 28.0766 12 28.375 12C28.6734 12 28.9595 12.1185 29.1705 12.3295C29.3815 12.5405 29.5 12.8266 29.5 13.125V20.25H36.625C36.9234 20.25 37.2095 20.3685 37.4205 20.5795C37.6315 20.7905 37.75 21.0766 37.75 21.375Z" fill="var(--fill-0, white)"/>
</g>
</svg>
