<svg width="320" height="240" viewBox="0 0 320 240" fill="none" xmlns="http://www.w3.org/2000/svg">
  <defs>
    <radialGradient id="blueHead" cx="0" cy="0" r="1" gradientUnits="userSpaceOnUse" gradientTransform="translate(149 63) rotate(38) scale(76)">
      <stop offset="0" stop-color="#F7FFFF"/>
      <stop offset="0.36" stop-color="#BFEAFF"/>
      <stop offset="1" stop-color="#4BA8E1"/>
    </radialGradient>
    <radialGradient id="blueBody" cx="0" cy="0" r="1" gradientUnits="userSpaceOnUse" gradientTransform="translate(161 176) rotate(90) scale(72 108)">
      <stop offset="0" stop-color="#F9FFFF"/>
      <stop offset="0.5" stop-color="#9AD6F3"/>
      <stop offset="1" stop-color="#4A9CDA"/>
    </radialGradient>
    <radialGradient id="greenHead" cx="0" cy="0" r="1" gradientUnits="userSpaceOnUse" gradientTransform="translate(101 82) rotate(38) scale(46)">
      <stop offset="0" stop-color="#FAFFD9"/>
      <stop offset="0.4" stop-color="#9FEA6A"/>
      <stop offset="1" stop-color="#249E31"/>
    </radialGradient>
    <radialGradient id="greenBody" cx="0" cy="0" r="1" gradientUnits="userSpaceOnUse" gradientTransform="translate(99 155) rotate(90) scale(50 70)">
      <stop offset="0" stop-color="#FBFFD2"/>
      <stop offset="0.5" stop-color="#9EE46B"/>
      <stop offset="1" stop-color="#2E9A39"/>
    </radialGradient>

    <linearGradient id="blueEdge" x1="76" y1="30" x2="242" y2="214" gradientUnits="userSpaceOnUse">
      <stop offset="0" stop-color="#F2FAFF"/>
      <stop offset="1" stop-color="#2165B2"/>
    </linearGradient>
    <linearGradient id="greenEdge" x1="56" y1="60" x2="150" y2="185" gradientUnits="userSpaceOnUse">
      <stop offset="0" stop-color="#F5FFE6"/>
      <stop offset="1" stop-color="#0E6719"/>
    </linearGradient>

    <filter id="softShadowBlue" x="58" y="25" width="204" height="194" color-interpolation-filters="sRGB">
      <feDropShadow dx="0" dy="2" stdDeviation="2.5" flood-color="#1154A0" flood-opacity="0.35"/>
    </filter>
    <filter id="softShadowGreen" x="47" y="55" width="112" height="132" color-interpolation-filters="sRGB">
      <feDropShadow dx="0" dy="2" stdDeviation="1.8" flood-color="#0E6D18" flood-opacity="0.35"/>
    </filter>
  </defs>

  <!-- Back green figure -->
  <g filter="url(#softShadowGreen)">
    <path d="M103 112C73 112 54 136 52 162C51 172 57 181 67 184C82 188 96 190 111 189C124 188 136 185 141 181C145 177 146 170 145 164C143 137 124 112 103 112Z" fill="url(#greenBody)"/>
    <path d="M103 112C73 112 54 136 52 162C51 172 57 181 67 184C82 188 96 190 111 189C124 188 136 185 141 181C145 177 146 170 145 164C143 137 124 112 103 112Z" stroke="url(#greenEdge)" stroke-width="3"/>
    <ellipse cx="73" cy="156" rx="8" ry="20" fill="url(#greenBody)" stroke="url(#greenEdge)" stroke-width="2.5"/>
    <ellipse cx="103" cy="121" rx="17" ry="9" fill="white" fill-opacity="0.3"/>
    <circle cx="107" cy="92" r="27" fill="url(#greenHead)"/>
    <circle cx="107" cy="92" r="27" stroke="url(#greenEdge)" stroke-width="3"/>
    <ellipse cx="107" cy="81" rx="13" ry="8" fill="white" fill-opacity="0.5"/>
    <ellipse cx="98" cy="104" rx="10" ry="6" fill="white" fill-opacity="0.2"/>
  </g>

  <!-- Front blue figure -->
  <g filter="url(#softShadowBlue)">
    <path d="M160 114C115 114 77 145 73 184C72 195 80 204 91 207C113 212 143 215 160 215C177 215 207 212 229 207C240 204 248 195 247 184C243 145 205 114 160 114Z" fill="url(#blueBody)"/>
    <path d="M160 114C115 114 77 145 73 184C72 195 80 204 91 207C113 212 143 215 160 215C177 215 207 212 229 207C240 204 248 195 247 184C243 145 205 114 160 114Z" stroke="url(#blueEdge)" stroke-width="4"/>
    <ellipse cx="96" cy="177" rx="9" ry="20" fill="url(#blueBody)" stroke="url(#blueEdge)" stroke-width="3"/>
    <ellipse cx="224" cy="177" rx="9" ry="20" fill="url(#blueBody)" stroke="url(#blueEdge)" stroke-width="3"/>
    <ellipse cx="160" cy="129" rx="36" ry="13" fill="white" fill-opacity="0.36"/>
    <circle cx="160" cy="74" r="47" fill="url(#blueHead)"/>
    <circle cx="160" cy="74" r="47" stroke="url(#blueEdge)" stroke-width="4"/>
    <ellipse cx="160" cy="57" rx="22" ry="12" fill="white" fill-opacity="0.46"/>
    <ellipse cx="170" cy="97" rx="20" ry="12" fill="white" fill-opacity="0.14"/>
  </g>

  <!-- Bright outer rim accents -->
  <path d="M103 112C73 112 54 136 52 162C51 172 57 181 67 184" stroke="white" stroke-opacity="0.5" stroke-width="1.7"/>
  <path d="M160 114C115 114 77 145 73 184C72 195 80 204 91 207" stroke="white" stroke-opacity="0.52" stroke-width="1.8"/>
  <circle cx="107" cy="92" r="25.8" stroke="white" stroke-opacity="0.45" stroke-width="1.3"/>
  <circle cx="160" cy="74" r="45" stroke="white" stroke-opacity="0.45" stroke-width="1.5"/>
</svg>
